<svg width="54" height="54" viewBox="0 0 54 54" fill="none" xmlns="http://www.w3.org/2000/svg">
<path d="M11.4539 42.9997C12.5521 39.8925 15.5154 37.6663 18.9987 37.6663C22.4819 37.6663 25.4454 39.8925 26.5435 42.9997H53.6654V48.333H26.5435C25.4454 51.4402 22.4819 53.6663 18.9987 53.6663C15.5154 53.6663 12.5521 51.4402 11.4539 48.333H0.332031V42.9997H11.4539ZM27.4539 24.333C28.552 21.2258 31.5155 18.9997 34.9987 18.9997C38.4819 18.9997 41.4454 21.2258 42.5435 24.333H53.6654V29.6663H42.5435C41.4454 32.7735 38.4819 34.9997 34.9987 34.9997C31.5155 34.9997 28.552 32.7735 27.4539 29.6663H0.332031V24.333H27.4539ZM11.4539 5.66634C12.5521 2.55917 15.5154 0.333008 18.9987 0.333008C22.4819 0.333008 25.4454 2.55917 26.5435 5.66634H53.6654V10.9997H26.5435C25.4454 14.1068 22.4819 16.333 18.9987 16.333C15.5154 16.333 12.5521 14.1068 11.4539 10.9997H0.332031V5.66634H11.4539ZM18.9987 10.9997C20.4714 10.9997 21.6654 9.80575 21.6654 8.33301C21.6654 6.86026 20.4714 5.66634 18.9987 5.66634C17.5259 5.66634 16.332 6.86026 16.332 8.33301C16.332 9.80575 17.5259 10.9997 18.9987 10.9997ZM34.9987 29.6663C36.4715 29.6663 37.6654 28.4725 37.6654 26.9997C37.6654 25.5269 36.4715 24.333 34.9987 24.333C33.5259 24.333 32.332 25.5269 32.332 26.9997C32.332 28.4725 33.5259 29.6663 34.9987 29.6663ZM18.9987 48.333C20.4714 48.333 21.6654 47.1391 21.6654 45.6663C21.6654 44.1935 20.4714 42.9997 18.9987 42.9997C17.5259 42.9997 16.332 44.1935 16.332 45.6663C16.332 47.1391 17.5259 48.333 18.9987 48.333Z" fill="#1A2747"/>
</svg>
