<svg width="55" height="55" viewBox="0 0 55 55" fill="none" xmlns="http://www.w3.org/2000/svg">
<path d="M24.3359 0.333008C37.5839 0.333008 48.3359 11.085 48.3359 24.333C48.3359 37.581 37.5839 48.333 24.3359 48.333C11.0879 48.333 0.335938 37.581 0.335938 24.333C0.335938 11.085 11.0879 0.333008 24.3359 0.333008ZM24.3359 42.9997C34.6479 42.9997 43.0026 34.645 43.0026 24.333C43.0026 14.0183 34.6479 5.66634 24.3359 5.66634C14.0213 5.66634 5.66927 14.0183 5.66927 24.333C5.66927 34.645 14.0213 42.9997 24.3359 42.9997ZM46.9626 43.189L54.5066 50.7303L50.7333 54.5037L43.1919 46.9597L46.9626 43.189Z" fill="#FC7901"/>
</svg>
